<svg width="12" height="15" viewBox="0 0 12 15" fill="none" xmlns="http://www.w3.org/2000/svg">
<mask id="path-1-inside-1_1392_70" fill="white">
<path d="M0.460121 0C0.33809 0 0.221056 0.0484769 0.134766 0.134766C0.0484768 0.221056 0 0.33809 0 0.460121V14.2638C0 14.3858 0.0484768 14.5028 0.134766 14.5891C0.221056 14.6754 0.33809 14.7239 0.460121 14.7239C0.582153 14.7239 0.699187 14.6754 0.785476 14.5891C0.871766 14.5028 0.920243 14.3858 0.920243 14.2638V0.460121C0.920243 0.33809 0.871766 0.221056 0.785476 0.134766C0.699187 0.0484769 0.582153 0 0.460121 0Z"/>
</mask>
<path d="M0.460121 -1C0.0728735 -1 -0.298514 -0.846167 -0.57234 -0.57234L0.841873 0.841873C0.740626 0.94312 0.603306 1 0.460121 1V-1ZM-0.57234 -0.57234C-0.846167 -0.298514 -1 0.0728738 -1 0.460121H1C1 0.603305 0.94312 0.740626 0.841873 0.841873L-0.57234 -0.57234ZM-1 0.460121V14.2638H1V0.460121H-1ZM-1 14.2638C-1 14.651 -0.846167 15.0224 -0.57234 15.2962L0.841873 13.882C0.943121 13.9833 1 14.1206 1 14.2638H-1ZM-0.57234 15.2962C-0.298513 15.5701 0.0728753 15.7239 0.460121 15.7239V13.7239C0.603304 13.7239 0.740625 13.7808 0.841873 13.882L-0.57234 15.2962ZM0.460121 15.7239C0.847368 15.7239 1.21876 15.5701 1.49258 15.2962L0.0783694 13.882C0.179618 13.7808 0.316938 13.7239 0.460121 13.7239V15.7239ZM1.49258 15.2962C1.76641 15.0224 1.92024 14.651 1.92024 14.2638H-0.0797573C-0.0797573 14.1206 -0.0228777 13.9833 0.0783694 13.882L1.49258 15.2962ZM1.92024 14.2638V0.460121H-0.0797573V14.2638H1.92024ZM1.92024 0.460121C1.92024 0.0728726 1.76641 -0.298515 1.49258 -0.57234L0.0783694 0.841873C-0.0228772 0.740627 -0.0797573 0.603306 -0.0797573 0.460121H1.92024ZM1.49258 -0.57234C1.21876 -0.846166 0.84737 -1 0.460121 -1V1C0.316937 1 0.179616 0.94312 0.0783694 0.841873L1.49258 -0.57234Z" fill="black" mask="url(#path-1-inside-1_1392_70)"/>
<path d="M8.47744 1.87102C9.514 1.89579 10.5441 1.70114 11.5001 1.29985V8.06942C10.5664 8.46414 9.55991 8.65804 8.54605 8.63831C7.65695 8.58482 6.78913 8.34424 5.99936 7.93228C5.34295 7.58028 4.62353 7.36123 3.88232 7.28769L3.85844 7.28533L3.83443 7.28525C3.33741 7.28379 2.84538 7.36377 2.37744 7.52035V0.7361C2.83174 0.582781 3.30828 0.502891 3.78905 0.500074C4.51735 0.56507 5.22485 0.777843 5.86829 1.12548L5.86828 1.1255L5.87191 1.12742C6.67153 1.55099 7.55044 1.8038 8.4529 1.86983L8.46515 1.87073L8.47744 1.87102Z" stroke="black"/>
</svg>
