<svg width="12" height="12" viewBox="0 0 12 12" fill="none" xmlns="http://www.w3.org/2000/svg">
<path d="M5.9997 10.3268C6.56729 10.3268 7.08567 10.2631 7.55846 10.1531L6.50429 9.06706C6.34049 9.08004 6.1743 9.09055 5.9997 9.09055C2.78918 9.09055 1.5454 6.7133 1.24421 6C1.47037 5.48005 1.77583 5.00073 2.14899 4.5802L1.31021 3.71608C0.387432 4.74647 0.03764 5.78428 0.0310401 5.80468C-0.0103467 5.93161 -0.0103467 6.069 0.0310401 6.19594C0.0436398 6.23674 1.42001 10.3268 5.9997 10.3268ZM5.9997 1.67323C4.89753 1.67323 3.99215 1.918 3.23736 2.27959L1.02402 0L0.175637 0.874008L10.9754 12L11.8238 11.126L9.83241 9.07448C11.4008 7.86855 11.9606 6.2219 11.969 6.19594C12.0103 6.069 12.0103 5.93161 11.969 5.80468C11.9558 5.76326 10.5794 1.67323 5.9997 1.67323ZM8.98283 8.19924L7.61486 6.78994C7.72886 6.54888 7.79966 6.28371 7.79966 6C7.79966 4.98568 6.98428 4.14567 5.9997 4.14567C5.72431 4.14567 5.46691 4.2186 5.23352 4.33666L4.14874 3.21912C4.74424 3.0086 5.37014 2.90388 5.9997 2.90945C9.21022 2.90945 10.454 5.2867 10.7552 6C10.574 6.42773 10.0556 7.44761 8.98283 8.19924Z" fill="black"/>
</svg>
