<svg width="13" height="12" viewBox="0 0 13 12" fill="none" xmlns="http://www.w3.org/2000/svg">
<path d="M0.652764 0.977757L2.91514 3.24419H0.810887C0.595826 3.24419 0.389574 3.32962 0.237503 3.48169C0.0854324 3.63376 0 3.84001 0 4.05507V7.29862C0 7.51368 0.0854324 7.71993 0.237503 7.872C0.389574 8.02407 0.595826 8.10951 0.810887 8.10951H2.89487L5.8992 11.1382C5.97807 11.2112 6.07065 11.2677 6.17158 11.3046C6.2725 11.3415 6.37975 11.358 6.48709 11.3531C6.59279 11.3531 6.69746 11.3324 6.79523 11.2922C6.94395 11.2311 7.07115 11.1272 7.16067 10.9937C7.25019 10.8601 7.29798 10.7029 7.29798 10.5422V7.61081L9.68604 9.99887C9.58468 10.0597 9.48738 10.1165 9.38196 10.1692C9.28572 10.2175 9.21265 10.3022 9.17881 10.4045C9.14497 10.5067 9.15315 10.6182 9.20154 10.7145C9.24993 10.8107 9.33457 10.8838 9.43683 10.9176C9.5391 10.9515 9.65062 10.9433 9.74686 10.8949C9.9291 10.8029 10.1064 10.7014 10.278 10.5908L11.2024 11.5152L11.7579 10.9476L1.21633 0.406082L0.652764 0.977757ZM6.48709 10.5422L3.35302 7.39187C3.27269 7.3248 3.16955 7.29139 3.06515 7.29862H0.810887V4.05507H3.09759C3.15123 4.05485 3.2043 4.04398 3.25371 4.02311C3.30312 4.00223 3.3479 3.97175 3.38545 3.93344L3.49087 3.82802L6.48709 6.81614V10.5422Z" fill="black"/>
<path d="M9.28074 1.09129C9.98741 1.42135 10.6078 1.91105 11.0929 2.52179C11.578 3.13252 11.9146 3.8476 12.0761 4.61063C12.2377 5.37366 12.2198 6.16379 12.0239 6.91873C11.828 7.67368 11.4594 8.37278 10.9471 8.96095L11.5228 9.53668C12.1275 8.85655 12.5651 8.04465 12.8008 7.16561C13.0364 6.28656 13.0635 5.36465 12.88 4.47326C12.6966 3.58187 12.3075 2.74562 11.7439 2.03108C11.1803 1.31655 10.4576 0.743459 9.63348 0.357437C9.58536 0.332505 9.53273 0.317472 9.4787 0.313227C9.42468 0.308982 9.37035 0.315611 9.31893 0.332723C9.26751 0.349835 9.22004 0.377082 9.17933 0.412854C9.13862 0.448625 9.10549 0.492195 9.08191 0.540988C9.05832 0.589782 9.04476 0.642807 9.04202 0.696932C9.03928 0.751056 9.04742 0.80518 9.06596 0.856105C9.0845 0.90703 9.11305 0.953722 9.14994 0.993421C9.18684 1.03312 9.23131 1.06502 9.28074 1.08724V1.09129Z" fill="black"/>
<path d="M8.38875 3.49558C8.77035 3.71824 9.08734 4.03652 9.30845 4.41902C9.52957 4.80153 9.64717 5.23506 9.64968 5.67687C9.64968 6.21952 9.47322 6.74746 9.14693 7.18106L9.73077 7.75679C10.2049 7.16745 10.4625 6.43327 10.4606 5.67687C10.4579 5.09333 10.3032 4.52057 10.0117 4.01506C9.72021 3.50954 9.30197 3.08875 8.79825 2.79416C8.7521 2.76483 8.7005 2.74513 8.64654 2.73626C8.59258 2.72738 8.53739 2.72951 8.48428 2.74252C8.43117 2.75553 8.38123 2.77915 8.33749 2.81196C8.29374 2.84476 8.25708 2.88608 8.22972 2.93342C8.20235 2.98076 8.18485 3.03315 8.17825 3.08743C8.17166 3.14172 8.17611 3.19677 8.19135 3.24929C8.20658 3.30181 8.23228 3.3507 8.26691 3.39302C8.30153 3.43535 8.34435 3.47023 8.3928 3.49558H8.38875Z" fill="black"/>
<path d="M6.48686 0.811535V4.52134L7.29775 5.33223V0.811535C7.29787 0.650818 7.25024 0.493688 7.1609 0.360095C7.07155 0.226502 6.94452 0.122472 6.79594 0.0612141C6.64735 -4.42546e-05 6.48392 -0.0157679 6.32638 0.0160395C6.16884 0.047847 6.02431 0.125751 5.91113 0.23986L4.0542 2.09679L4.62587 2.66847L6.48686 0.811535Z" fill="black"/>
</svg>
