<svg width="16" height="16" viewBox="0 0 16 16" fill="none" xmlns="http://www.w3.org/2000/svg">
<path d="M13.4072 1.05576C13.8965 0.913057 14.4212 1.04862 14.7758 1.41251C15.1303 1.77639 15.265 2.30439 15.1161 2.78957L11.7338 14.1842C11.5707 14.7193 11.131 15.0975 10.578 15.1688C10.5212 15.176 10.4574 15.176 10.4007 15.176C9.9185 15.176 9.47887 14.9334 9.22359 14.5053L7.04386 10.9021C6.82049 10.5339 6.87722 10.0594 7.18071 9.75477L11 5L6.43617 8.99775C6.13339 9.30313 5.66114 9.35949 5.29525 9.13474L1.72782 6.94215C1.26833 6.6596 0.916626 5.98391 1.01732 5.45164C1.11588 4.92865 1.48177 4.51695 1.99799 4.37354L13.4072 1.05576Z" stroke="black"/>
</svg>
