<svg width="30" height="30" viewBox="0 0 30 30" fill="none" xmlns="http://www.w3.org/2000/svg">
<path d="M15 0C23.2843 0 30 6.71633 30 15.0015C30 23.2852 23.2843 30 15 30C6.71566 30.0015 0 23.2852 0 15.0015C0 6.71633 6.71566 0 15 0ZM15 2.24977C13.314 2.23149 11.6412 2.54779 10.0783 3.18039C8.51541 3.81298 7.09348 4.7493 5.89481 5.93516C4.69615 7.12101 3.74456 8.53284 3.09511 10.089C2.44567 11.6451 2.11127 13.3145 2.11127 15.0007C2.11127 16.687 2.44567 18.3564 3.09511 19.9125C3.74456 21.4687 4.69615 22.8805 5.89481 24.0663C7.09348 25.2522 8.51541 26.1885 10.0783 26.8211C11.6412 27.4537 13.314 27.77 15 27.7517C18.3575 27.7153 21.5651 26.3559 23.9264 23.9686C26.2877 21.5812 27.6122 18.3588 27.6122 15.0007C27.6122 11.6427 26.2877 8.42026 23.9264 6.03295C21.5651 3.64563 18.3575 2.28619 15 2.24977ZM9.69406 19.1756C10.3253 19.9792 11.131 20.6286 12.0503 21.0748C12.9695 21.5209 13.9782 21.7521 15 21.7508C16.0207 21.7521 17.0283 21.5213 17.9467 21.076C18.8651 20.6306 19.6703 19.9823 20.3014 19.1801C20.393 19.0642 20.5065 18.9674 20.6355 18.8954C20.7645 18.8233 20.9063 18.7774 21.053 18.7602C21.1998 18.743 21.3484 18.7549 21.4905 18.7951C21.6327 18.8354 21.7655 18.9033 21.8814 18.9949C21.9973 19.0864 22.094 19.2 22.166 19.3289C22.2381 19.4579 22.284 19.5998 22.3012 19.7465C22.3184 19.8933 22.3065 20.0419 22.2663 20.1841C22.226 20.3262 22.1582 20.459 22.0666 20.5749C21.2249 21.6437 20.1515 22.5074 18.9273 23.1008C17.7032 23.6942 16.3603 24.0019 15 24.0006C13.6379 24.0017 12.2934 23.6931 11.0681 23.098C9.84283 22.503 8.76886 21.6372 7.92741 20.5659C7.83208 20.4503 7.7608 20.3169 7.71776 20.1733C7.67472 20.0298 7.66078 19.8791 7.67677 19.7301C7.69277 19.5811 7.73836 19.4368 7.81088 19.3057C7.88341 19.1746 7.98139 19.0593 8.09909 18.9666C8.21679 18.8738 8.35182 18.8056 8.49627 18.7657C8.64071 18.7259 8.79165 18.7154 8.94023 18.7347C9.08881 18.754 9.23203 18.8029 9.36148 18.8783C9.49093 18.9538 9.604 19.0543 9.69406 19.1741V19.1756ZM10.5009 10.127C10.7514 10.1199 11.0009 10.1631 11.2344 10.2541C11.4679 10.3451 11.6809 10.482 11.8606 10.6567C12.0403 10.8315 12.1832 11.0405 12.2807 11.2714C12.3783 11.5023 12.4285 11.7504 12.4285 12.001C12.4285 12.2517 12.3783 12.4998 12.2807 12.7307C12.1832 12.9616 12.0403 13.1706 11.8606 13.3454C11.6809 13.5201 11.4679 13.657 11.2344 13.748C11.0009 13.839 10.7514 13.8822 10.5009 13.8751C10.0131 13.8613 9.5499 13.6578 9.20974 13.3079C8.86959 12.9579 8.67929 12.4891 8.67929 12.001C8.67929 11.513 8.86959 11.0442 9.20974 10.6942C9.5499 10.3443 10.0131 10.1408 10.5009 10.127ZM19.4991 10.127C19.7496 10.1199 19.9991 10.1631 20.2326 10.2541C20.4661 10.3451 20.6791 10.482 20.8588 10.6567C21.0385 10.8315 21.1814 11.0405 21.2789 11.2714C21.3765 11.5023 21.4267 11.7504 21.4267 12.001C21.4267 12.2517 21.3765 12.4998 21.2789 12.7307C21.1814 12.9616 21.0385 13.1706 20.8588 13.3454C20.6791 13.5201 20.4661 13.657 20.2326 13.748C19.9991 13.839 19.7496 13.8822 19.4991 13.8751C19.0113 13.8613 18.5481 13.6578 18.2079 13.3079C17.8678 12.9579 17.6775 12.4891 17.6775 12.001C17.6775 11.513 17.8678 11.0442 18.2079 10.6942C18.5481 10.3443 19.0113 10.1408 19.4991 10.127Z" fill="white"/>
</svg>
