<svg width="28" height="28" viewBox="0 0 28 28" fill="none" xmlns="http://www.w3.org/2000/svg">
<path d="M20.0673 0C24.8123 0 28 3.32936 28 8.28341V19.7166C28 24.6706 24.8123 28 20.0659 28H7.93266C3.18765 28 0 24.6706 0 19.7166V8.28341C0 3.32936 3.18765 0 7.93266 0H20.0673ZM21.6112 14.7701C20.1105 13.8338 18.9519 15.1486 18.6393 15.569C18.3381 15.975 18.079 16.4229 17.8059 16.8708C17.1386 17.9761 16.3742 19.2504 15.0508 19.9915C13.1278 21.0563 11.6679 20.0753 10.6177 19.3616C10.2235 19.0958 9.84055 18.8444 9.45904 18.6768C8.51862 18.2708 7.67253 18.7331 6.41676 20.3282C5.75791 21.1618 5.10469 21.9882 4.44302 22.8118C4.04742 23.3044 4.14175 24.0644 4.67531 24.3938C5.52703 24.9183 6.56599 25.2 7.7401 25.2H19.5389C20.2048 25.2 20.8721 25.109 21.5085 24.9009C22.9416 24.4328 24.0791 23.3608 24.6732 21.9449C25.1744 20.7544 25.4179 19.3096 24.9491 18.1075C24.7929 17.7088 24.5592 17.3375 24.2312 17.0109C23.371 16.1571 22.5671 15.3595 21.6112 14.7701ZM9.0984 5.6C7.1683 5.6 5.6 7.17042 5.6 9.1C5.6 11.0296 7.1683 12.6 9.0984 12.6C11.0271 12.6 12.5968 11.0296 12.5968 9.1C12.5968 7.17042 11.0271 5.6 9.0984 5.6Z" fill="white"/>
</svg>
