<svg width="30" height="30" viewBox="0 0 30 30" fill="none" xmlns="http://www.w3.org/2000/svg">
<path d="M17.4233 20.9952C17.3645 20.937 17.2852 20.9044 17.2026 20.9044C17.1199 20.9044 17.0406 20.937 16.9819 20.9952L12.443 25.5344C10.3415 27.6361 6.7947 27.8588 4.47446 25.5344C2.15032 23.2101 2.37297 19.667 4.47446 17.5653L9.01338 13.026C9.13447 12.9049 9.13447 12.7057 9.01338 12.5846L7.45874 11.0298C7.40001 10.9717 7.3207 10.939 7.23805 10.939C7.15539 10.939 7.07608 10.9717 7.01735 11.0298L2.47843 15.5691C-0.826145 18.874 -0.826145 24.2219 2.47843 27.5228C5.78301 30.8238 11.1305 30.8277 14.4312 27.5228L18.9701 22.9835C19.0912 22.8624 19.0912 22.6632 18.9701 22.5421L17.4233 20.9952ZM27.5245 2.47864C24.2199 -0.826212 18.8724 -0.826212 15.5718 2.47864L11.0289 7.01792C10.9708 7.07666 10.9382 7.15598 10.9382 7.23863C10.9382 7.32129 10.9708 7.40061 11.0289 7.45935L12.5797 9.01021C12.7008 9.13131 12.9 9.13131 13.0211 9.01021L17.56 4.47092C19.6615 2.36926 23.2082 2.14659 25.5285 4.47092C27.8526 6.79525 27.63 10.3384 25.5285 12.4401L20.9896 16.9793C20.9314 17.0381 20.8988 17.1174 20.8988 17.2001C20.8988 17.2827 20.9314 17.362 20.9896 17.4208L22.5442 18.9755C22.6653 19.0966 22.8645 19.0966 22.9856 18.9755L27.5245 14.4363C30.8252 11.1314 30.8252 5.78349 27.5245 2.47864ZM18.8334 9.54539C18.7746 9.48723 18.6953 9.4546 18.6127 9.4546C18.53 9.4546 18.4507 9.48723 18.392 9.54539L9.54461 18.3896C9.48646 18.4483 9.45383 18.5276 9.45383 18.6103C9.45383 18.6929 9.48646 18.7723 9.54461 18.831L11.0914 20.3779C11.2125 20.499 11.4117 20.499 11.5328 20.3779L20.3763 11.5338C20.4974 11.4127 20.4974 11.2134 20.3763 11.0923L18.8334 9.54539Z" fill="white"/>
</svg>
