<svg width="25" height="25" viewBox="0 0 25 25" fill="none" xmlns="http://www.w3.org/2000/svg">
<path d="M19.791 11.4577H13.541V5.20768C13.541 4.93142 13.4313 4.66646 13.2359 4.47111C13.0406 4.27576 12.7756 4.16602 12.4993 4.16602C12.2231 4.16602 11.9581 4.27576 11.7628 4.47111C11.5674 4.66646 11.4577 4.93142 11.4577 5.20768V11.4577H5.20768C4.93142 11.4577 4.66646 11.5674 4.47111 11.7628C4.27576 11.9581 4.16602 12.2231 4.16602 12.4993C4.16602 12.7756 4.27576 13.0406 4.47111 13.2359C4.66646 13.4313 4.93142 13.541 5.20768 13.541H11.4577V19.791C11.4577 20.0673 11.5674 20.3322 11.7628 20.5276C11.9581 20.7229 12.2231 20.8327 12.4993 20.8327C12.7756 20.8327 13.0406 20.7229 13.2359 20.5276C13.4313 20.3322 13.541 20.0673 13.541 19.791V13.541H19.791C20.0673 13.541 20.3322 13.4313 20.5276 13.2359C20.7229 13.0406 20.8327 12.7756 20.8327 12.4993C20.8327 12.2231 20.7229 11.9581 20.5276 11.7628C20.3322 11.5674 20.0673 11.4577 19.791 11.4577Z" fill="white"/>
</svg>
