<svg width="10" height="10" viewBox="0 0 10 10" fill="none" xmlns="http://www.w3.org/2000/svg">
<path fill-rule="evenodd" clip-rule="evenodd" d="M0.507385 0.50824C0.929905 0.0857204 1.61597 0.0859537 2.03877 0.50876L5.01343 3.48342L7.99015 0.507107C8.41267 0.0845878 9.09874 0.0848204 9.52154 0.507627C9.94435 0.930434 9.94458 1.6165 9.52206 2.03902L6.54534 5.01533L9.52164 7.99162C9.94444 8.41443 9.94468 9.10049 9.52216 9.52301C9.09964 9.94553 8.41357 9.9453 7.99077 9.52249L5.01447 6.5462L2.03816 9.52292C1.61462 9.94646 0.929579 9.9452 0.506773 9.5224C0.0839658 9.09959 0.0827121 8.41455 0.506252 7.99101L3.48256 5.01429L0.507905 2.03963C0.0850987 1.61682 0.0848654 0.93076 0.507385 0.50824Z" fill="#FF0000"/>
</svg>
