<svg width="25" height="25" viewBox="0 0 25 25" fill="none" xmlns="http://www.w3.org/2000/svg">
<path d="M19.793 18.75H5.20964C4.63434 18.75 4.16797 19.2164 4.16797 19.7917C4.16797 20.367 4.63434 20.8333 5.20964 20.8333H19.793C20.3683 20.8333 20.8346 20.367 20.8346 19.7917C20.8346 19.2164 20.3683 18.75 19.793 18.75Z" fill="white"/>
<path d="M4.16797 17.709V19.7923C4.16797 20.3676 4.63434 20.834 5.20964 20.834C5.78493 20.834 6.2513 20.3676 6.2513 19.7923V17.709C6.2513 17.1337 5.78493 16.6673 5.20964 16.6673C4.63434 16.6673 4.16797 17.1337 4.16797 17.709Z" fill="white"/>
<path d="M18.752 17.709V19.7923C18.752 20.3676 19.2183 20.834 19.7936 20.834C20.3689 20.834 20.8353 20.3676 20.8353 19.7923V17.709C20.8353 17.1337 20.3689 16.6673 19.7936 16.6673C19.2183 16.6673 18.752 17.1337 18.752 17.709Z" fill="white"/>
<path d="M12.5008 15.6244C12.2849 15.626 12.0737 15.5605 11.8967 15.4369L7.72999 12.4994C7.50542 12.34 7.35306 12.0983 7.30621 11.827C7.25936 11.5557 7.32184 11.2768 7.47999 11.0514C7.55893 10.9388 7.65941 10.8429 7.77562 10.7693C7.89183 10.6956 8.02147 10.6458 8.15706 10.6225C8.29264 10.5993 8.43149 10.6031 8.56559 10.6338C8.69968 10.6645 8.82636 10.7215 8.93832 10.8014L12.5008 13.291L16.0425 10.6244C16.2635 10.4586 16.5413 10.3874 16.8148 10.4265C17.0883 10.4656 17.3351 10.6117 17.5008 10.8327C17.6666 11.0537 17.7378 11.3315 17.6987 11.605C17.6596 11.8785 17.5135 12.1253 17.2925 12.291L13.1258 15.416C12.9455 15.5513 12.7262 15.6244 12.5008 15.6244Z" fill="white"/>
<path d="M12.5007 13.5417C12.2244 13.5417 11.9594 13.4319 11.7641 13.2366C11.5687 13.0412 11.459 12.7763 11.459 12.5V4.16667C11.459 3.8904 11.5687 3.62545 11.7641 3.4301C11.9594 3.23475 12.2244 3.125 12.5007 3.125C12.7769 3.125 13.0419 3.23475 13.2372 3.4301C13.4326 3.62545 13.5423 3.8904 13.5423 4.16667V12.5C13.5423 12.7763 13.4326 13.0412 13.2372 13.2366C13.0419 13.4319 12.7769 13.5417 12.5007 13.5417Z" fill="white"/>
</svg>
