<svg width="32" height="28" viewBox="0 0 32 28" fill="none" xmlns="http://www.w3.org/2000/svg">
<path d="M23.2368 4.66295H7.92678L10.5691 0.699443C10.88 0.233148 11.3463 0 11.8903 0H19.351C19.895 0 20.3613 0.233148 20.6722 0.699443L23.2368 4.66295ZM7.77135 3.80808H3.1084V2.40919C3.1084 1.86518 3.49698 1.4766 4.04099 1.4766H6.83876C7.38277 1.4766 7.77135 1.86518 7.77135 2.40919V3.80808Z" fill="white"/>
<path d="M27.9777 27.9003H3.10864C1.39889 27.9003 0 26.5014 0 24.7917V6.13989C0 4.43014 1.39889 3.03125 3.10864 3.03125H27.9777C29.6875 3.03125 31.0864 4.43014 31.0864 6.13989V24.7917C31.0864 26.5014 29.6875 27.9003 27.9777 27.9003Z" fill="white"/>
<path d="M23.315 14.6876C23.315 10.4132 19.8178 6.91602 15.5434 6.91602C13.6782 6.91602 11.9685 7.53774 10.6473 8.62577L11.5799 9.86922C12.6679 9.01434 13.9891 8.47033 15.5434 8.47033C18.9629 8.47033 21.7607 11.2681 21.7607 14.6876H19.0406L22.5378 19.0397L26.035 14.6876H23.315ZM19.5069 19.506C18.4189 20.3609 17.02 20.9049 15.5434 20.9049C12.1239 20.9049 9.32613 18.1071 9.32613 14.6876H12.0462L8.54897 10.3355L5.05176 14.6876H7.77181C7.77181 18.962 11.269 22.4592 15.5434 22.4592C17.4086 22.4592 19.1183 21.8375 20.4395 20.7494L19.5069 19.506Z" fill="black"/>
</svg>
