<svg width="20" height="20" viewBox="0 0 20 20" fill="none" xmlns="http://www.w3.org/2000/svg">
<path d="M5.20679 0.292786C5.39426 0.480314 5.49957 0.734622 5.49957 0.999786C5.49957 1.26495 5.39426 1.51926 5.20679 1.70679L3.41379 3.49979H11.2498C12.832 3.49979 14.3788 3.96898 15.6943 4.84803C17.0099 5.72708 18.0353 6.97651 18.6408 8.43832C19.2463 9.90013 19.4048 11.5087 19.0961 13.0605C18.7874 14.6124 18.0255 16.0378 16.9066 17.1566C15.7878 18.2755 14.3624 19.0374 12.8105 19.3461C11.2587 19.6548 9.65013 19.4963 8.18832 18.8908C6.72651 18.2853 5.47708 17.2599 4.59803 15.9443C3.71898 14.6288 3.24979 13.082 3.24979 11.4998C3.24979 11.2346 3.35514 10.9802 3.54268 10.7927C3.73022 10.6051 3.98457 10.4998 4.24979 10.4998C4.515 10.4998 4.76936 10.6051 4.95689 10.7927C5.14443 10.9802 5.24979 11.2346 5.24979 11.4998C5.24979 12.6865 5.60168 13.8465 6.26097 14.8332C6.92026 15.8199 7.85733 16.5889 8.95369 17.0431C10.05 17.4972 11.2564 17.616 12.4203 17.3845C13.5842 17.153 14.6533 16.5815 15.4924 15.7424C16.3315 14.9033 16.903 13.8342 17.1345 12.6703C17.366 11.5064 17.2472 10.3 16.7931 9.20369C16.3389 8.10733 15.5699 7.17026 14.5832 6.51097C13.5965 5.85168 12.4365 5.49979 11.2498 5.49979H3.41379L5.20679 7.29279C5.38894 7.48139 5.48974 7.73399 5.48746 7.99619C5.48518 8.25838 5.38001 8.5092 5.1946 8.6946C5.0092 8.88001 4.75838 8.98518 4.49619 8.98746C4.23399 8.98974 3.98139 8.88894 3.79279 8.70679L0.292786 5.20679C0.105315 5.01926 0 4.76495 0 4.49979C0 4.23462 0.105315 3.98031 0.292786 3.79279L3.79279 0.292786C3.98031 0.105315 4.23462 0 4.49979 0C4.76495 0 5.01926 0.105315 5.20679 0.292786Z" fill="white"/>
</svg>
