<svg width="24" height="22" viewBox="0 0 24 22" fill="none" xmlns="http://www.w3.org/2000/svg">
<path d="M15.9808 0.425601C16.6812 0.704367 17.1764 1.20683 17.6204 1.94348L17.7667 2.19771L18.3093 3.23829L18.3272 3.26735L18.3434 3.29264L18.3895 3.35565C18.6367 3.62505 19.0505 3.7878 19.3236 3.7878C21.8253 3.7878 23.8687 5.75251 23.9939 8.22245L24 8.463V15.417C24 18.6234 21.4678 21.24 18.2946 21.3755L18.036 21.381H5.964C2.75681 21.381 0.140965 18.8491 0.00551006 15.6757L0 15.417V8.463C0 5.88131 2.09397 3.7878 4.6764 3.7878C4.94853 3.7878 5.3629 3.62481 5.61053 3.35565L5.61906 3.34559L5.62974 3.3316L5.69145 3.23694L6.23258 2.19804C6.71493 1.32141 7.23964 0.735395 8.01826 0.425488C9.44507 -0.141848 14.5551 -0.141848 15.9808 0.425601ZM8.68362 2.098C8.41796 2.20374 8.17743 2.4485 7.92074 2.87281L7.80962 3.06577L7.34779 3.95868L7.23412 4.1644C7.13923 4.32223 7.04432 4.45547 6.93594 4.57355C6.38343 5.1741 5.59016 5.52096 4.88498 5.57907L4.6764 5.5878L4.47949 5.59444C3.04797 5.69123 1.90345 6.83547 1.80664 8.2662L1.8 8.463V15.417C1.8 17.6397 3.54209 19.4562 5.73554 19.5748L5.964 19.581H18.036C20.2583 19.581 22.0752 17.8382 22.1938 15.6454L22.2 15.417V8.463C22.2 6.94166 21.0171 5.69563 19.5205 5.59444L19.3236 5.5878L19.1147 5.57907C18.4084 5.52095 17.6151 5.174 17.0633 4.57275C16.9564 4.45623 16.862 4.32395 16.7677 4.16745L16.745 4.12865L16.718 4.08047L16.5787 3.81917L16.19 3.0661C15.9275 2.58957 15.6872 2.29834 15.4277 2.15197L15.3152 2.098L15.172 2.0504C13.937 1.70134 9.64129 1.7172 8.68362 2.098ZM11.9996 7.43904C14.6039 7.43904 16.7144 9.54959 16.7144 12.1538C16.7144 14.7581 14.6039 16.8686 11.9996 16.8686C9.39538 16.8686 7.28484 14.7581 7.28484 12.1538C7.28484 9.54959 9.39538 7.43904 11.9996 7.43904ZM11.9996 9.23904C10.3895 9.23904 9.08484 10.5437 9.08484 12.1538C9.08484 13.764 10.3895 15.0686 11.9996 15.0686C13.6098 15.0686 14.9144 13.764 14.9144 12.1538C14.9144 10.5437 13.6098 9.23904 11.9996 9.23904Z" fill="#BCBCBC"/>
</svg>
