<svg width="22" height="22" viewBox="0 0 22 22" fill="none" xmlns="http://www.w3.org/2000/svg">
<path fill-rule="evenodd" clip-rule="evenodd" d="M11.0018 0C13.9425 0 16.7061 1.14333 18.7819 3.22015C23.0727 7.51094 23.0727 14.4917 18.7819 18.7825C16.6785 20.8869 13.8463 22.0006 10.9772 22.0006C9.41318 22.0006 7.83893 21.67 6.36602 20.9883C5.93203 20.8143 5.52567 20.6505 5.23395 20.6505C4.89822 20.6525 4.44683 20.8081 4.01079 20.9586C3.11619 21.2657 2.00255 21.6485 1.17857 20.8276C0.357673 20.0056 0.736393 18.8951 1.04142 18.0015C1.19188 17.5614 1.34644 17.1069 1.34644 16.763C1.34644 16.4805 1.21031 16.1202 1.0015 15.6012C-0.915646 11.4609 -0.029236 6.471 3.22264 3.22117C5.29844 1.14435 8.06105 0 11.0018 0ZM11.0028 1.53535C8.4715 1.53535 6.09375 2.52003 4.30762 4.30718C1.50919 7.10356 0.747652 11.3974 2.41095 14.9932C2.65047 15.5859 2.88179 16.1632 2.88179 16.763C2.88179 17.3618 2.67605 17.9646 2.49488 18.4969C2.34544 18.935 2.11923 19.5962 2.26458 19.7416C2.40686 19.889 3.07218 19.6566 3.51129 19.5061C4.03842 19.326 4.63619 19.1192 5.22883 19.1151C5.8225 19.1151 6.3824 19.3403 6.97504 19.5788C10.6056 21.2575 14.8995 20.4939 17.6969 17.6975C21.3879 14.0045 21.3879 7.99714 17.6969 4.30615C15.9098 2.519 13.533 1.53535 11.0028 1.53535ZM15.0427 10.4022C15.6077 10.4022 16.0663 10.8598 16.0663 11.4258C16.0663 11.9918 15.6077 12.4494 15.0427 12.4494C14.4777 12.4494 14.015 11.9918 14.015 11.4258C14.015 10.8598 14.4685 10.4022 15.0335 10.4022H15.0427ZM10.9394 10.4022C11.5044 10.4022 11.963 10.8598 11.963 11.4258C11.963 11.9918 11.5044 12.4494 10.9394 12.4494C10.3744 12.4494 9.91176 11.9918 9.91176 11.4258C9.91176 10.8598 10.3642 10.4022 10.9302 10.4022H10.9394ZM6.83573 10.4022C7.40074 10.4022 7.8593 10.8598 7.8593 11.4258C7.8593 11.9918 7.40074 12.4494 6.83573 12.4494C6.27072 12.4494 5.80807 11.9918 5.80807 11.4258C5.80807 10.8598 6.26151 10.4022 6.82652 10.4022H6.83573Z" fill="#BCBCBC"/>
</svg>
