<svg width="22" height="22" viewBox="0 0 22 22" fill="none" xmlns="http://www.w3.org/2000/svg">
<path d="M11.022 0C17.27 0 22 5.12268 22 10.9835C22 17.7807 16.456 22 11 22C9.196 22 7.194 21.5153 5.588 20.5679C5.027 20.2263 4.554 19.973 3.949 20.1713L1.727 20.8322C1.166 21.0085 0.66 20.5679 0.825 19.973L1.562 17.5053C1.683 17.1637 1.661 16.8002 1.485 16.5138C0.539 14.7732 0 12.8673 0 11.0165C0 5.22183 4.631 0 11.022 0ZM16.049 9.61743C15.268 9.61743 14.641 10.2454 14.641 11.0275C14.641 11.7987 15.268 12.4377 16.049 12.4377C16.83 12.4377 17.457 11.7987 17.457 11.0275C17.457 10.2454 16.83 9.61743 16.049 9.61743ZM10.978 9.61743C10.208 9.60641 9.57 10.2454 9.57 11.0165C9.57 11.7987 10.197 12.4266 10.978 12.4377C11.759 12.4377 12.386 11.7987 12.386 11.0275C12.386 10.2454 11.759 9.61743 10.978 9.61743ZM5.907 9.61743C5.126 9.61743 4.499 10.2454 4.499 11.0275C4.499 11.7987 5.137 12.4377 5.907 12.4377C6.688 12.4266 7.315 11.7987 7.315 11.0275C7.315 10.2454 6.688 9.61743 5.907 9.61743Z" fill="black"/>
</svg>
