<svg width="23" height="20" viewBox="0 0 23 20" fill="none" xmlns="http://www.w3.org/2000/svg">
<path d="M18.5386 12.3353C20.6654 12.3353 22.3881 14.029 22.3881 16.1185C22.3881 18.2069 20.6654 19.9005 18.5386 19.9005C16.413 19.9005 14.6891 18.2069 14.6891 16.1185C14.6891 14.029 16.413 12.3353 18.5386 12.3353ZM9.04846 14.5052C9.98004 14.5052 10.7363 15.2481 10.7363 16.1634C10.7363 17.0774 9.98004 17.8216 9.04846 17.8216H1.6878C0.756215 17.8216 0 17.0774 0 16.1634C0 15.2481 0.756215 14.5052 1.6878 14.5052H9.04846ZM3.84948 0C5.97634 0 7.69896 1.69364 7.69896 3.78197C7.69896 5.87152 5.97634 7.56516 3.84948 7.56516C1.72387 7.56516 0 5.87152 0 3.78197C0 1.69364 1.72387 0 3.84948 0ZM20.7015 2.12499C21.6318 2.12499 22.3881 2.86794 22.3881 3.78197C22.3881 4.69722 21.6318 5.44017 20.7015 5.44017H13.3408C12.4093 5.44017 11.653 4.69722 11.653 3.78197C11.653 2.86794 12.4093 2.12499 13.3408 2.12499H20.7015Z" fill="#BCBCBC"/>
</svg>
