<svg width="18" height="18" viewBox="0 0 18 18" fill="none" xmlns="http://www.w3.org/2000/svg">
<path fill-rule="evenodd" clip-rule="evenodd" d="M8.833 0C9.661 0 10.333 0.672 10.333 1.5V7.3254L16.166 7.3258C16.994 7.3258 17.666 7.9978 17.666 8.8258C17.666 9.6538 16.994 10.3258 16.166 10.3258L10.333 10.3254V16.154C10.333 16.982 9.661 17.654 8.833 17.654C8.005 17.654 7.333 16.982 7.333 16.154V10.3254L1.5 10.3258C0.67 10.3258 0 9.6538 0 8.8258C0 7.9978 0.67 7.3258 1.5 7.3258L7.333 7.3254V1.5C7.333 0.672 8.005 0 8.833 0Z" fill="#03A3F4"/>
</svg>
