<svg width="28" height="28" viewBox="0 0 28 28" fill="none" xmlns="http://www.w3.org/2000/svg">
<path d="M17.5159 14.6859L17.5155 14.6864C17.2498 15.0444 17.0136 15.4357 16.7964 15.7953C16.7526 15.8677 16.7096 15.9389 16.6673 16.0082L16.6656 16.0111C16.0009 17.112 15.3501 18.1683 14.2648 18.7769C13.5111 19.1937 12.8921 19.1977 12.3547 19.0508C11.7766 18.8928 11.2641 18.5543 10.7421 18.1995L10.7399 18.198C10.3628 17.9437 9.9376 17.6615 9.496 17.4675L9.49161 17.4656C8.81995 17.1756 8.14427 17.2033 7.47253 17.5684C6.86051 17.9011 6.27239 18.5023 5.64847 19.2947C5.00788 20.1052 4.37488 20.9061 3.73403 21.7037L3.73388 21.7039C3.09778 22.4961 3.20768 23.7673 4.15048 24.3494L4.15123 24.3498C5.11181 24.9413 6.2614 25.2448 7.52352 25.2448H18.9922C19.707 25.2448 20.4356 25.1472 21.1397 24.917C22.7475 24.3918 24.0156 23.1904 24.674 21.6218C25.1977 20.3779 25.506 18.7546 24.9498 17.3283L24.9493 17.3272C24.7615 16.848 24.4786 16.3979 24.0822 16.0034L24.0815 16.0027L24.0538 15.9752C23.2388 15.1661 22.4051 14.3385 21.4018 13.7194C20.4148 13.1044 19.4846 13.2261 18.7874 13.5829C18.1359 13.9163 17.6957 14.444 17.5159 14.6859ZM19.5058 0.75C21.6299 0.75 23.3543 1.49104 24.549 2.73875C25.7466 3.98929 26.4665 5.80629 26.4665 8.05162V19.1649C26.4665 21.4102 25.7466 23.2272 24.5489 24.4777C23.354 25.7254 21.6293 26.4665 19.5044 26.4665H7.71068C5.58656 26.4665 3.86224 25.7255 2.66745 24.4778C1.46994 23.2272 0.75 21.4102 0.75 19.1649V8.05162C0.75 5.80629 1.46994 3.98929 2.66745 2.73875C3.86224 1.49104 5.58656 0.75 7.71068 0.75H19.5058ZM8.84381 4.6933C6.55298 4.6933 4.6933 6.55608 4.6933 8.84536C4.6933 11.1346 6.55298 12.9974 8.84381 12.9974C11.1331 12.9974 12.9943 11.1348 12.9943 8.84536C12.9943 6.55589 11.1331 4.6933 8.84381 4.6933Z" stroke="#03A3F4" stroke-width="1.5"/>
</svg>
