<svg width="18" height="17" viewBox="0 0 18 17" fill="none" xmlns="http://www.w3.org/2000/svg">
<path d="M10.9548 2.88812C10.5609 2.81534 10.199 3.06675 10.124 3.4513C10.049 3.83585 10.3012 4.2113 10.6845 4.28656C11.8383 4.5115 12.7292 5.40464 12.9551 6.56243V6.56325C13.0193 6.89653 13.3127 7.13884 13.6506 7.13884C13.696 7.13884 13.7413 7.1347 13.7875 7.12643C14.1707 7.04952 14.4229 6.6749 14.3479 6.28952C14.0108 4.56029 12.6798 3.2247 10.9548 2.88812Z" fill="black"/>
<path d="M10.9033 0.00656233C10.7187 -0.0199013 10.5333 0.03468 10.3858 0.152112C10.2341 0.271199 10.1393 0.443212 10.1187 0.635901C10.0751 1.02541 10.3561 1.37771 10.7451 1.42154C13.4278 1.72091 15.5129 3.81071 15.8145 6.50173C15.8549 6.8623 16.1574 7.13438 16.5184 7.13438C16.5456 7.13438 16.5719 7.13273 16.5991 7.12942C16.7879 7.10874 16.956 7.01529 17.0747 6.86644C17.1925 6.71758 17.2461 6.53233 17.2247 6.34295C16.8489 2.98538 14.2503 0.379534 10.9033 0.00656233Z" fill="black"/>
<path fill-rule="evenodd" clip-rule="evenodd" d="M8.1525 9.08028C11.4537 12.3806 12.2026 8.56251 14.3045 10.6629C16.3309 12.6887 17.4955 13.0946 14.9281 15.6613C14.6065 15.9197 12.5633 19.0291 5.38255 11.8503C-1.79905 4.67074 1.30848 2.62539 1.56699 2.30389C4.14061 -0.2699 4.53949 0.901537 6.56587 2.92735C8.66776 5.02866 4.85131 5.78001 8.1525 9.08028Z" fill="black"/>
</svg>
