<svg width="30" height="26" viewBox="0 0 30 26" fill="none" xmlns="http://www.w3.org/2000/svg">
<path d="M19.4332 0.517545C20.2849 0.856533 20.8871 1.46755 21.4269 2.36333L21.6048 2.67249L22.2647 3.93787L22.2864 3.9732L22.3062 4.00396L22.3622 4.08058C22.6629 4.40818 23.166 4.60609 23.4981 4.60609C26.5403 4.60609 29.0251 6.99525 29.1774 9.99876L29.1848 10.2913V18.7476C29.1848 22.6467 26.1055 25.8285 22.2469 25.9933L21.9324 26H7.25242C3.35237 26 0.171418 22.9212 0.00670041 19.0621L0 18.7476V10.2913C0 7.15187 2.54634 4.60609 5.68666 4.60609C6.01757 4.60609 6.52146 4.40789 6.82259 4.08058L6.83296 4.06835L6.84594 4.05134L6.92099 3.93623L7.57902 2.67289C8.16557 1.60688 8.80364 0.894264 9.75047 0.517408C11.4855 -0.172492 17.6995 -0.172492 19.4332 0.517545ZM10.5596 2.55124C10.2365 2.67982 9.94402 2.97745 9.63188 3.49343L9.49676 3.72807L8.93515 4.81389L8.79693 5.06405C8.68154 5.25598 8.56612 5.41799 8.43433 5.56159C7.76246 6.29187 6.79782 6.71367 5.9403 6.78433L5.68666 6.79495L5.4472 6.80302C3.70643 6.92072 2.31466 8.31216 2.19693 10.052L2.18886 10.2913V18.7476C2.18886 21.4505 4.3073 23.6594 6.9746 23.8036L7.25242 23.8111H21.9324C24.6348 23.8111 26.8441 21.6918 26.9884 19.0253L26.9959 18.7476V10.2913C26.9959 8.44129 25.5575 6.92607 23.7376 6.80302L23.4981 6.79495L23.2441 6.78433C22.3852 6.71366 21.4206 6.29175 20.7496 5.56062C20.6195 5.41892 20.5047 5.25806 20.39 5.06775L20.3625 5.02057L20.3296 4.96198L20.1602 4.64424L19.6875 3.72847C19.3684 3.149 19.0761 2.79485 18.7606 2.61687L18.6238 2.55124L18.4496 2.49335C16.9479 2.06888 11.7241 2.08818 10.5596 2.55124ZM14.592 9.04612C17.7588 9.04612 20.3253 11.6126 20.3253 14.7795C20.3253 17.9463 17.7588 20.5128 14.592 20.5128C11.4251 20.5128 8.8586 17.9463 8.8586 14.7795C8.8586 11.6126 11.4251 9.04612 14.592 9.04612ZM14.592 11.235C12.634 11.235 11.0475 12.8215 11.0475 14.7795C11.0475 16.7375 12.634 18.324 14.592 18.324C16.5499 18.324 18.1364 16.7375 18.1364 14.7795C18.1364 12.8215 16.5499 11.235 14.592 11.235ZM22.6245 8.02611C23.4304 8.02611 24.0837 8.67943 24.0837 9.48535C24.0837 10.2337 23.5204 10.8505 22.7947 10.9348L22.6245 10.9446C21.8054 10.9446 21.1521 10.2913 21.1521 9.48535C21.1521 8.737 21.7154 8.12022 22.4412 8.03593L22.6245 8.02611Z" fill="#03A3F4"/>
</svg>
