<svg width="18" height="17" viewBox="0 0 18 17" fill="none" xmlns="http://www.w3.org/2000/svg">
<path d="M9.04111 0C13.7416 0 17.3001 3.85391 17.3001 8.26311C17.3001 13.3768 13.1292 16.5511 9.02456 16.5511C7.66737 16.5511 6.16122 16.1864 4.953 15.4736C4.53094 15.2167 4.1751 15.0261 3.71994 15.1753L2.04828 15.6726C1.62623 15.8052 1.24556 15.4736 1.36969 15.0261L1.92415 13.1696C2.01518 12.9127 1.99863 12.6392 1.86622 12.4237C1.15452 11.1142 0.749023 9.68035 0.749023 8.28797C0.749023 3.9285 4.23303 0 9.04111 0ZM12.823 7.2354C12.2355 7.2354 11.7638 7.70781 11.7638 8.29626C11.7638 8.87642 12.2355 9.35712 12.823 9.35712C13.4106 9.35712 13.8823 8.87642 13.8823 8.29626C13.8823 7.70781 13.4106 7.2354 12.823 7.2354ZM9.00801 7.2354C8.42872 7.22711 7.94874 7.70781 7.94874 8.28797C7.94874 8.87642 8.42045 9.34883 9.00801 9.35712C9.59557 9.35712 10.0673 8.87642 10.0673 8.29626C10.0673 7.70781 9.59557 7.2354 9.00801 7.2354ZM5.19299 7.2354C4.60542 7.2354 4.13372 7.70781 4.13372 8.29626C4.13372 8.87642 4.6137 9.35712 5.19299 9.35712C5.78055 9.34883 6.25226 8.87642 6.25226 8.29626C6.25226 7.70781 5.78055 7.2354 5.19299 7.2354Z" fill="black"/>
</svg>
