<svg width="16" height="16" viewBox="0 0 16 16" fill="none" xmlns="http://www.w3.org/2000/svg">
<path d="M15.9918 15.3827L14.8976 9.17766H15.2671C15.5644 9.17766 15.8039 8.94213 15.8039 8.64975V4.75127C15.8039 4.45888 15.5644 4.22335 15.2671 4.22335H10.1884V0.527919C10.1884 0.235533 9.94891 0 9.65162 0H6.34839C6.0511 0 5.81162 0.235533 5.81162 0.527919V4.22335H0.732904C0.435613 4.22335 0.196129 4.45888 0.196129 4.75127V8.64975C0.196129 8.94213 0.435613 9.17766 0.732904 9.17766H1.10245L0.0082581 15.3827C0.00206455 15.4132 0 15.4437 0 15.4721C0 15.7645 0.239484 16 0.536775 16H15.4632C15.4942 16 15.5252 15.998 15.5541 15.9919C15.8472 15.9431 16.0434 15.669 15.9918 15.3827ZM1.64129 5.64467H7.25678V1.42132H8.74323V5.64467H14.3587V7.75634H1.64129V5.64467ZM11.3032 14.5787V11.4112C11.3032 11.3218 11.2289 11.2487 11.1381 11.2487H10.1471C10.0563 11.2487 9.98195 11.3218 9.98195 11.4112V14.5787H6.01807V11.4112C6.01807 11.3218 5.94375 11.2487 5.85291 11.2487H4.86194C4.7711 11.2487 4.69678 11.3218 4.69678 11.4112V14.5787H1.61652L2.54762 9.29949H13.4503L14.3814 14.5787H11.3032Z" fill="black"/>
</svg>
