<svg width="16" height="20" viewBox="0 0 16 20" fill="none" xmlns="http://www.w3.org/2000/svg">
<path d="M4.46289 2.73171V13.122C4.46289 13.5812 4.64534 14.0217 4.9701 14.3465C5.29485 14.6712 5.73532 14.8537 6.1946 14.8537H13.1214C13.5807 14.8537 14.0212 14.6712 14.3459 14.3465C14.6707 14.0217 14.8531 13.5812 14.8531 13.122V5.53881C14.8531 5.30811 14.807 5.07974 14.7175 4.86711C14.628 4.65449 14.4969 4.46189 14.3319 4.30063L11.4616 1.49354C11.1381 1.1772 10.7036 1.00006 10.2511 1H6.1946C5.73532 1 5.29485 1.18245 4.9701 1.50721C4.64534 1.83196 4.46289 2.27243 4.46289 2.73171V2.73171Z" stroke="black" stroke-width="2" stroke-linecap="round" stroke-linejoin="round"/>
<path d="M11.3902 14.8545V16.5862C11.3902 17.0455 11.2078 17.4859 10.883 17.8107C10.5583 18.1354 10.1178 18.3179 9.65854 18.3179H2.73171C2.27243 18.3179 1.83196 18.1354 1.50721 17.8107C1.18245 17.4859 1 17.0455 1 16.5862V7.06179C1 6.60251 1.18245 6.16204 1.50721 5.83728C1.83196 5.51253 2.27243 5.33008 2.73171 5.33008H4.46341" stroke="black" stroke-width="2" stroke-linecap="round" stroke-linejoin="round"/>
</svg>
