<svg width="24" height="27" viewBox="0 0 24 27" fill="none" xmlns="http://www.w3.org/2000/svg">
<path d="M5.13459 20.3264L5.13449 20.3265L5.14163 20.3376C5.48869 20.8799 6.12428 21.2329 6.81621 21.1633H17.2267H17.2642L17.3015 21.1596C18.2255 21.067 18.91 20.2817 18.91 19.3733C18.91 18.4557 18.2308 17.6669 17.3015 17.5737L17.2642 17.57H17.2267H6.80583C6.14144 17.5191 5.4974 17.8354 5.13805 18.4147C4.76763 18.9983 4.77706 19.7454 5.13459 20.3264ZM6.77333 5.45H6.02333V5.62764C5.40905 5.91166 4.98333 6.53361 4.98333 7.25333C4.98333 8.24025 5.78383 9.04333 6.77333 9.04333H10.7587C11.7538 9.04333 12.55 8.23464 12.55 7.23867C12.55 6.2512 11.7463 5.45 10.7587 5.45H6.77333ZM17.588 0.75C19.5043 0.75 20.8935 1.29932 21.8049 2.22205C22.7178 3.14626 23.25 4.54489 23.25 6.44V20.2133C23.25 22.1447 22.7163 23.5445 21.8061 24.4617C20.8968 25.3781 19.5089 25.9167 17.588 25.9167H6.41333C4.52792 25.9167 3.13691 25.3796 2.217 24.4597C1.29722 23.5399 0.75 22.139 0.75 20.2133V6.44C0.75 4.55059 1.29565 3.15088 2.2182 2.22412C3.14029 1.29783 4.53248 0.75 6.41333 0.75H17.588ZM17.2267 11.4887H6.77333C5.78258 11.4887 4.98333 12.2943 4.98333 13.28C4.98333 14.2669 5.78383 15.07 6.77333 15.07H17.2267C18.2142 15.07 19.0167 14.2675 19.0167 13.28C19.0167 12.2937 18.2155 11.4887 17.2267 11.4887Z" stroke="#03A3F4" stroke-width="1.5"/>
</svg>
