<svg width="18" height="14" viewBox="0 0 18 14" fill="none" xmlns="http://www.w3.org/2000/svg">
<path d="M9.90218 3.53946V0.87394C9.90218 0.642157 9.99702 0.419867 10.1658 0.255971C10.3347 0.0920755 10.5636 0 10.8024 0C11.0385 0.000965373 11.2648 0.0919872 11.4325 0.253443L17.7337 6.37102C17.8181 6.45227 17.8851 6.54892 17.9308 6.65542C17.9765 6.76192 18 6.87615 18 6.99152C18 7.10689 17.9765 7.22112 17.9308 7.32762C17.8851 7.43411 17.8181 7.53077 17.7337 7.61202L11.4325 13.7296C11.3061 13.8499 11.146 13.9313 10.9723 13.9637C10.7985 13.9961 10.6187 13.9781 10.4554 13.9119C10.2922 13.8457 10.1526 13.7342 10.0542 13.5915C9.95578 13.4487 9.90292 13.2809 9.90218 13.1091V10.3999H9.13703C7.71482 10.3793 6.30503 10.6594 5.00551 11.2208C3.706 11.7822 2.54788 12.6114 1.61155 13.6509C1.49871 13.7968 1.34169 13.9047 1.16251 13.9595C0.98332 14.0144 0.790947 14.0134 0.612349 13.9568C0.430597 13.8973 0.273191 13.7829 0.16308 13.6304C0.0529709 13.4779 -0.00408745 13.2953 0.000228882 13.1091C0.000228882 5.13877 7.27366 3.77542 9.90218 3.53946ZM9.13703 8.63453C9.73911 8.6327 10.3406 8.67066 10.9374 8.74814C11.1505 8.77953 11.3449 8.88412 11.4853 9.04289C11.6258 9.20166 11.7028 9.40407 11.7025 9.61334V11.0029L15.8254 6.99152L11.7025 2.98013V4.3697C11.7025 4.60148 11.6077 4.82377 11.4389 4.98767C11.2701 5.15156 11.0411 5.24364 10.8024 5.24364C9.9832 5.24364 3.50192 5.41843 2.09764 10.8631C4.13592 9.40408 6.60468 8.62251 9.13703 8.63453Z" fill="black"/>
</svg>
