<svg width="24" height="30" viewBox="0 0 24 30" fill="none" xmlns="http://www.w3.org/2000/svg">
<path d="M21.5625 11.6875C21.5625 9.15137 20.555 6.71911 18.7617 4.92579C16.9684 3.13247 14.5361 2.125 12 2.125C9.46387 2.125 7.03161 3.13247 5.23829 4.92579C3.44497 6.71911 2.4375 9.15137 2.4375 11.6875C2.4375 15.6102 5.57612 20.723 12 26.8472C18.4239 20.723 21.5625 15.6102 21.5625 11.6875ZM12 29.75C4.20762 22.6674 0.3125 16.6451 0.3125 11.6875C0.3125 8.58778 1.54386 5.61502 3.73569 3.42319C5.92752 1.23136 8.90028 0 12 0C15.0997 0 18.0725 1.23136 20.2643 3.42319C22.4561 5.61502 23.6875 8.58778 23.6875 11.6875C23.6875 16.6451 19.7924 22.6674 12 29.75Z" fill="#03A3F4"/>
<path d="M12 14.875C12.8454 14.875 13.6561 14.5392 14.2539 13.9414C14.8517 13.3436 15.1875 12.5329 15.1875 11.6875C15.1875 10.8421 14.8517 10.0314 14.2539 9.4336C13.6561 8.83582 12.8454 8.5 12 8.5C11.1546 8.5 10.3439 8.83582 9.7461 9.4336C9.14832 10.0314 8.8125 10.8421 8.8125 11.6875C8.8125 12.5329 9.14832 13.3436 9.7461 13.9414C10.3439 14.5392 11.1546 14.875 12 14.875ZM12 17C10.591 17 9.23978 16.4403 8.2435 15.444C7.24721 14.4477 6.6875 13.0965 6.6875 11.6875C6.6875 10.2785 7.24721 8.92728 8.2435 7.931C9.23978 6.93471 10.591 6.375 12 6.375C13.409 6.375 14.7602 6.93471 15.7565 7.931C16.7528 8.92728 17.3125 10.2785 17.3125 11.6875C17.3125 13.0965 16.7528 14.4477 15.7565 15.444C14.7602 16.4403 13.409 17 12 17Z" fill="#03A3F4"/>
</svg>
