<svg width="16" height="8" viewBox="0 0 16 8" fill="none" xmlns="http://www.w3.org/2000/svg">
<path d="M9.04485 0.287056C9.22992 0.122337 9.47619 0.031273 9.73171 0.0330805C9.98723 0.034888 10.232 0.129426 10.4144 0.296744C10.5968 0.464063 10.7025 0.691076 10.7092 0.929882C10.716 1.16869 10.6232 1.40061 10.4506 1.5767L5.20868 7.70559C5.11854 7.79635 5.00975 7.86919 4.88882 7.91975C4.76788 7.97031 4.63728 7.99755 4.50483 7.99984C4.37238 8.00213 4.24079 7.97943 4.11793 7.93309C3.99508 7.88676 3.88348 7.81773 3.78981 7.73015L0.313605 4.48025C0.216798 4.39591 0.139152 4.29421 0.0852988 4.18122C0.0314452 4.06822 0.00248761 3.94624 0.000153344 3.82255C-0.00218092 3.69887 0.022156 3.57601 0.0717124 3.46131C0.121269 3.3466 0.195029 3.24241 0.288594 3.15493C0.382158 3.06746 0.493609 2.9985 0.616299 2.95217C0.738988 2.90584 0.870403 2.88309 1.0027 2.88527C1.135 2.88745 1.26548 2.91453 1.38634 2.96487C1.50721 3.01522 1.61599 3.08781 1.70619 3.17832L4.4572 5.74901L9.01858 0.314078C9.02676 0.304595 9.03553 0.295572 9.04485 0.287056ZM7.83619 6.60018L9.04485 7.73015C9.1385 7.81754 9.25002 7.8864 9.37275 7.93263C9.49548 7.97885 9.62691 8.0015 9.7592 7.9992C9.8915 7.99691 10.0219 7.96973 10.1428 7.91929C10.2636 7.86884 10.3723 7.79616 10.4624 7.70559L15.7069 1.5767C15.8011 1.48974 15.8756 1.38593 15.926 1.27146C15.9763 1.15698 16.0015 1.0342 15.9999 0.910435C15.9984 0.786672 15.9702 0.664469 15.917 0.551124C15.8638 0.437779 15.7867 0.335617 15.6904 0.250737C15.594 0.165857 15.4804 0.100001 15.3562 0.0571017C15.232 0.0142024 15.0999 -0.00486058 14.9676 0.00105153C14.8354 0.00696365 14.7058 0.0377299 14.5865 0.0915119C14.4673 0.145294 14.3609 0.220989 14.2736 0.314078L9.71093 5.74901L9.07376 5.15209L7.83488 6.60018H7.83619Z" fill="#20AFF6"/>
</svg>
