<svg width="21" height="26" viewBox="0 0 21 26" fill="none" xmlns="http://www.w3.org/2000/svg">
<path fill-rule="evenodd" clip-rule="evenodd" d="M20.1 10.5611C20.5968 10.5611 21 10.9643 21 11.4611C21 16.9717 16.7705 21.5082 11.4004 21.9683L11.4 24.9C11.4 25.3968 10.9968 25.8 10.5 25.8C10.0032 25.8 9.6 25.3968 9.6 24.9L9.60083 21.9684C4.23016 21.5089 0 16.9721 0 11.4611C0 10.9643 0.4032 10.5611 0.9 10.5611C1.3968 10.5611 1.8 10.9643 1.8 11.4611C1.8 16.2827 5.7024 20.2067 10.5 20.2067C15.2976 20.2067 19.2 16.2827 19.2 11.4611C19.2 10.9643 19.6032 10.5611 20.1 10.5611ZM10.5 0C13.6836 0 16.2732 2.6004 16.2732 5.7972V11.4228C16.2732 14.6184 13.6836 17.2188 10.5 17.2188C7.3164 17.2188 4.7256 14.6184 4.7256 11.4228V5.7972C4.7256 2.6004 7.3164 0 10.5 0ZM10.5 1.8C8.3088 1.8 6.5256 3.5928 6.5256 5.7972V11.4228C6.5256 13.6248 8.3088 15.4188 10.5 15.4188C12.6612 15.4188 14.4244 13.6736 14.4722 11.513L11.7846 11.5126C11.2878 11.5126 10.8846 11.1094 10.8846 10.6126C10.8846 10.1158 11.2878 9.71256 11.7846 9.71256L14.472 9.7116V7.506L12.9823 7.50708C12.4855 7.50708 12.0823 7.10388 12.0823 6.60708C12.0823 6.11028 12.4855 5.70708 12.9823 5.70708L14.4696 5.706L14.4669 5.57068C14.3498 3.47129 12.6156 1.8 10.5 1.8Z" fill="#03A3F4"/>
</svg>
