<svg width="18" height="14" viewBox="0 0 18 14" fill="none" xmlns="http://www.w3.org/2000/svg">
<path d="M8.09782 3.53946V0.87394C8.09782 0.642157 8.00298 0.419867 7.83416 0.255971C7.66534 0.0920755 7.43638 0 7.19764 0C6.96149 0.000965373 6.73518 0.0919872 6.56751 0.253443L0.266271 6.37102C0.181899 6.45227 0.114931 6.54892 0.0692299 6.65542C0.0235291 6.76192 0 6.87615 0 6.99152C0 7.10689 0.0235291 7.22112 0.0692299 7.32762C0.114931 7.43411 0.181899 7.53077 0.266271 7.61202L6.56751 13.7296C6.69389 13.8499 6.85396 13.9313 7.02774 13.9637C7.20151 13.9961 7.38128 13.9781 7.54456 13.9119C7.70785 13.8457 7.84741 13.7342 7.94582 13.5915C8.04422 13.4487 8.09708 13.2809 8.09782 13.1091V10.3999H8.86297C10.2852 10.3793 11.695 10.6594 12.9945 11.2208C14.294 11.7822 15.4521 12.6114 16.3885 13.6509C16.5013 13.7968 16.6583 13.9047 16.8375 13.9595C17.0167 14.0144 17.2091 14.0134 17.3877 13.9568C17.5694 13.8973 17.7268 13.7829 17.8369 13.6304C17.947 13.4779 18.0041 13.2953 17.9998 13.1091C17.9998 5.13877 10.7263 3.77542 8.09782 3.53946ZM8.86297 8.63453C8.26089 8.6327 7.65938 8.67066 7.06261 8.74814C6.8495 8.77953 6.65507 8.88412 6.51466 9.04289C6.37425 9.20166 6.29718 9.40407 6.29746 9.61334V11.0029L2.17465 6.99152L6.29746 2.98013V4.3697C6.29746 4.60148 6.3923 4.82377 6.56112 4.98767C6.72993 5.15156 6.9589 5.24364 7.19764 5.24364C8.0168 5.24364 14.4981 5.41843 15.9024 10.8631C13.8641 9.40408 11.3953 8.62251 8.86297 8.63453Z" fill="black"/>
</svg>
