<svg width="23" height="17" viewBox="0 0 23 17" fill="none" xmlns="http://www.w3.org/2000/svg">
<path d="M11.7496 0C14.4221 0 16.288 1.84162 16.288 4.48083V12.0702C16.288 14.7095 14.4221 16.5511 11.7496 16.5511H5.35866C2.68619 16.5511 0.820312 14.7095 0.820312 12.0702V4.48083C0.820312 1.84162 2.68619 0 5.35866 0H11.7496ZM20.6352 2.62498C21.1196 2.37854 21.6879 2.4043 22.1502 2.69556C22.6126 2.98569 22.8884 3.48978 22.8884 4.04093V12.5108C22.8884 13.0631 22.6126 13.5661 22.1502 13.8562C21.8975 14.0141 21.6151 14.0948 21.3304 14.0948C21.0932 14.0948 20.8559 14.0388 20.6341 13.9256L19 13.1012C18.3953 12.7942 18.0201 12.1781 18.0201 11.4937V5.05696C18.0201 4.37139 18.3953 3.75527 19 3.45058L20.6352 2.62498Z" fill="black"/>
</svg>
