<svg width="15" height="11" viewBox="0 0 15 11" fill="none" xmlns="http://www.w3.org/2000/svg">
<path d="M13.2858 4.85125C13.5821 5.23875 13.5821 5.76188 13.2858 6.14875C12.3527 7.36688 10.1139 9.875 7.50019 9.875C4.88644 9.875 2.64769 7.36688 1.71456 6.14875C1.57043 5.96321 1.49219 5.73495 1.49219 5.5C1.49219 5.26505 1.57043 5.03679 1.71456 4.85125C2.64769 3.63312 4.88644 1.125 7.50019 1.125C10.1139 1.125 12.3527 3.63312 13.2858 4.85125V4.85125Z" stroke="black" stroke-linecap="round" stroke-linejoin="round"/>
<path d="M7.5 7.375C8.53553 7.375 9.375 6.53553 9.375 5.5C9.375 4.46447 8.53553 3.625 7.5 3.625C6.46447 3.625 5.625 4.46447 5.625 5.5C5.625 6.53553 6.46447 7.375 7.5 7.375Z" stroke="black" stroke-linecap="round" stroke-linejoin="round"/>
</svg>
