<svg width="31" height="31" viewBox="0 0 31 31" fill="none" xmlns="http://www.w3.org/2000/svg">
<path d="M8.41078 26.2072C9.69628 26.2072 10.7495 27.2828 10.7495 28.6115C10.7495 29.9244 9.69628 31 8.41078 31C7.1098 31 6.05662 29.9244 6.05662 28.6115C6.05662 27.2828 7.1098 26.2072 8.41078 26.2072ZM25.8347 26.2072C27.1202 26.2072 28.1734 27.2828 28.1734 28.6115C28.1734 29.9244 27.1202 31 25.8347 31C24.5337 31 23.4805 29.9244 23.4805 28.6115C23.4805 27.2828 24.5337 26.2072 25.8347 26.2072ZM1.20625 0.000185209L1.36409 0.0135444L5.05796 0.581407C5.58455 0.677896 5.97175 1.11921 6.01821 1.65702L6.31248 5.20023C6.35894 5.70798 6.76163 6.08761 7.25724 6.08761H28.1737C29.1185 6.08761 29.738 6.41979 30.3575 7.14741C30.977 7.87504 31.0854 8.91902 30.946 9.86651L29.4747 20.243C29.1959 22.2377 27.5232 23.7072 25.5562 23.7072H8.6589C6.59901 23.7072 4.89533 22.0953 4.72497 20.0074L3.30008 2.76428L0.961401 2.35301C0.341884 2.24229 -0.0917781 1.62539 0.0166374 0.992672C0.125053 0.34572 0.729082 -0.0829448 1.36409 0.0135444L1.20625 0.000185209ZM23.0782 11.9387H18.788C18.1375 11.9387 17.6264 12.4606 17.6264 13.125C17.6264 13.7735 18.1375 14.3113 18.788 14.3113H23.0782C23.7287 14.3113 24.2398 13.7735 24.2398 13.125C24.2398 12.4606 23.7287 11.9387 23.0782 11.9387Z" fill="url(#paint0_linear_506_72)"/>
<defs>
<linearGradient id="paint0_linear_506_72" x1="15.5" y1="0" x2="15.5" y2="31" gradientUnits="userSpaceOnUse">
<stop stop-color="#5DDA22"/>
<stop offset="1" stop-color="#0075FF"/>
</linearGradient>
</defs>
</svg>
